HIERARCHY
ROOT Hips
{
    OFFSET 0.000000 0.000000 0.000000
    CHANNELS 6 Xposition Yposition Zposition Zrotation Xrotation Yrotation
    JOINT Spine
    {
        OFFSET -0.000000 7.236184 0.000000
        CHANNELS 3 Zrotation Xrotation Yrotation
        JOINT Spine1
        {
            OFFSET -0.000000 20.420147 0.000000
            CHANNELS 3 Zrotation Xrotation Yrotation
            JOINT Neck
            {
                OFFSET -0.000000 20.336288 1.848754
                CHANNELS 3 Zrotation Xrotation Yrotation
                JOINT Head
                {
                    OFFSET -0.000000 12.354461 -1.764923
                    CHANNELS 3 Zrotation Xrotation Yrotation
                    End Site
                    {
                        OFFSET -0.000000 22.061537 0.000000
                    }
                }
            }
            JOINT LeftShoulder
            {
                OFFSET 3.573296 18.396038 -0.314103
                CHANNELS 3 Zrotation Xrotation Yrotation
                JOINT LeftArm
                {
                    OFFSET 10.880760 0.000000 0.000000
                    CHANNELS 3 Zrotation Xrotation Yrotation
                    JOINT LeftForeArm
                    {
                        OFFSET 27.185530 0.000000 0.000000
                        CHANNELS 3 Zrotation Xrotation Yrotation
                        JOINT LeftHand
                        {
                            OFFSET 27.825975 0.000000 0.000000
                            CHANNELS 3 Zrotation Xrotation Yrotation
                            End Site
                            {
                                OFFSET 13.236923 0.000000 0.000000
                            }
                        }
                    }
                }
            }
            JOINT RightShoulder
            {
                OFFSET -3.474926 18.396038 -0.314103
                CHANNELS 3 Zrotation Xrotation Yrotation
                JOINT RightArm
                {
                    OFFSET -10.880760 0.000000 0.000000
                    CHANNELS 3 Zrotation Xrotation Yrotation
                    JOINT RightForeArm
                    {
                        OFFSET -27.185530 0.000000 0.000000
                        CHANNELS 3 Zrotation Xrotation Yrotation
                        JOINT RightHand
                        {
                            OFFSET -27.825975 0.000000 0.000000
                            CHANNELS 3 Zrotation Xrotation Yrotation
                            End Site
                            {
                                OFFSET -13.236923 0.000000 0.000000
                            }
                        }
                    }
                }
            }
        }
    }
    JOINT LeftUpLeg
    {
        OFFSET 8.824615 0.000000 0.000000
        CHANNELS 3 Zrotation Xrotation Yrotation
        JOINT LeftLeg
        {
            OFFSET -0.000000 -35.111282 0.000000
            CHANNELS 3 Zrotation Xrotation Yrotation
            JOINT LeftFoot
            {
                OFFSET -0.000000 -42.324711 0.000000
                CHANNELS 3 Zrotation Xrotation Yrotation
                JOINT LeftToeBase
                {
                    OFFSET -0.000000 -5.735999 13.236923
                    CHANNELS 3 Zrotation Xrotation Yrotation
                    End Site
                    {
                        OFFSET -0.000000 0.000000 3.529846
                    }
                }
            }
        }
    }
    JOINT RightUpLeg
    {
        OFFSET -8.824615 0.000000 0.000000
        CHANNELS 3 Zrotation Xrotation Yrotation
        JOINT RightLeg
        {
            OFFSET -0.000000 -35.111282 0.000000
            CHANNELS 3 Zrotation Xrotation Yrotation
            JOINT RightFoot
            {
                OFFSET -0.000000 -42.324711 0.000000
                CHANNELS 3 Zrotation Xrotation Yrotation
                JOINT RightToeBase
                {
                    OFFSET -0.000000 -5.735999 13.236923
                    CHANNELS 3 Zrotation Xrotation Yrotation
                    End Site
                    {
                        OFFSET -0.000000 0.000000 3.529846
                    }
                }
            }
        }
    }
}
MOTION
Frames:    11
Frame Time:    0.008333
-3.260417    81.663010    98.685524    -1.456963    -8.460190    -176.209915    -2.956617    -13.232366    -0.039916    1.109727    7.620783    0.229291    2.784090    6.230053    -2.027288    4.783242    -9.492398    -1.299388    1.631134    17.423569    -2.064836    -46.657677    44.408714    -40.698280    1.418492    -2.912050    -13.919621    15.333163    -2.675180    0.475344    4.139485    18.886444    -5.771744    47.035881    42.597168    30.974150    -6.403113    -9.373882    25.341721    -19.599869    -7.589788    -2.099837    4.608256    -8.711288    -4.025157    -1.178401    10.874087    -1.481663    -5.852462    -8.849833    -8.851883    -0.089006    -0.893943    0.098820    -6.278659    -2.685787    1.026003    3.284617    2.972421    3.617700    -0.184232    -5.813529    -11.927573    -2.272485    0.258564    2.456948    
-3.254904    81.665649    98.685646    -1.460248    -8.451609    -176.211105    -2.958078    -13.233953    -0.038197    1.112754    7.651336    0.230721    2.757264    6.206670    -2.035695    4.815362    -9.554882    -1.296554    1.666128    17.329481    -2.091481    -46.411095    44.207355    -40.939663    1.260393    -2.961587    -13.944875    14.799457    -2.745232    0.481208    4.113072    18.860512    -5.740625    47.088898    42.260899    31.017284    -6.428314    -9.521139    25.532589    -19.509054    -7.739939    -1.998411    4.607772    -8.702995    -4.029324    -1.177052    10.872776    -1.463915    -5.858682    -8.845252    -8.863614    -0.088182    -0.892582    0.097905    -6.273870    -2.703861    0.998894    3.279701    3.020603    3.629330    -0.187976    -5.827250    -11.911999    -2.268365    0.256055    2.452502    
-3.249388    81.668365    98.686218    -1.463381    -8.442817    -176.212021    -2.959220    -13.235395    -0.036449    1.115233    7.681809    0.232075    2.730924    6.184337    -2.044118    4.846986    -9.617644    -1.293734    1.704049    17.232733    -2.120812    -46.163082    44.002071    -41.185146    1.101555    -3.006594    -13.968777    14.269461    -2.810944    0.486950    4.084736    18.831516    -5.706777    47.135307    41.922195    31.067202    -6.449636    -9.663418    25.725866    -19.424873    -7.884937    -1.899968    4.607363    -8.695161    -4.032883    -1.175505    10.871965    -1.447308    -5.865207    -8.840644    -8.875261    -0.087422    -0.890682    0.097060    -6.268907    -2.721992    0.971527    3.274641    3.068728    3.640580    -0.190755    -5.840691    -11.895936    -2.263647    0.252949    2.447411    
-3.243948    81.671181    98.687645    -1.466190    -8.433755    -176.212296    -2.959912    -13.236300    -0.034966    1.116915    7.711389    0.233374    2.705914    6.164742    -2.052267    4.876881    -9.680525    -1.291063    1.746869    17.132978    -2.154422    -45.913036    43.794464    -41.437561    0.943907    -3.042795    -13.990997    13.756499    -2.867643    0.493800    4.052783    18.797956    -5.668591    47.166885    41.585487    31.130251    -6.466417    -9.792565    25.919197    -19.356148    -8.016524    -1.806233    4.606986    -8.688410    -4.034914    -1.173386    10.872257    -1.433159    -5.872302    -8.836038    -8.886897    -0.086577    -0.888720    0.096122    -6.263661    -2.740034    0.943821    3.269350    3.116101    3.650751    -0.191773    -5.853338    -11.878769    -2.258116    0.249692    2.441442    
-3.238291    81.674225    98.690376    -1.468399    -8.423874    -176.211639    -2.959943    -13.236531    -0.033708    1.117824    7.741135    0.234334    2.681768    6.148038    -2.060392    4.905533    -9.746142    -1.288529    1.798810    17.024197    -2.196145    -45.646294    43.574924    -41.713394    0.780921    -3.069225    -14.012131    13.245513    -2.915201    0.501930    4.014340    18.755800    -5.621741    47.176750    41.238091    31.215178    -6.480826    -9.907985    26.121225    -19.306997    -8.133489    -1.714543    4.607147    -8.682975    -4.034841    -1.170591    10.874433    -1.422453    -5.880288    -8.831526    -8.898437    -0.085696    -0.886345    0.095143    -6.257523    -2.758709    0.914784    3.263655    3.164436    3.660198    -0.191370    -5.865266    -11.860106    -2.251293    0.246022    2.434077    
-3.232503    81.677368    98.694656    -1.469386    -8.413351    -176.209824    -2.959070    -13.235720    -0.032957    1.118041    7.769686    0.234728    2.660206    6.135835    -2.068044    4.930687    -9.812655    -1.286351    1.860186    16.908733    -2.246583    -45.369267    43.350792    -42.007668    0.618710    -3.083796    -14.030755    12.761372    -2.950925    0.509071    3.969231    18.704798    -5.565759    47.156876    40.894905    31.324991    -6.494633    -10.000338    26.324957    -19.282557    -8.225782    -1.629212    4.608475    -8.679296    -4.033631    -1.167478    10.878418    -1.414222    -5.889225    -8.826842    -8.910033    -0.084730    -0.883670    0.094070    -6.249968    -2.777447    0.885419    3.257465    3.212041    3.668019    -0.189780    -5.875722    -11.840161    -2.243393    0.242495    2.425548    
-3.226215    81.680588    98.700882    -1.468496    -8.401647    -176.206528    -2.957290    -13.233970    -0.032860    1.118520    7.798244    0.234112    2.639980    6.128219    -2.075541    4.953738    -9.881351    -1.284325    1.934176    16.781830    -2.309073    -45.069683    43.115269    -42.334137    0.453461    -3.087782    -14.046993    12.293976    -2.976989    0.511721    3.914340    18.641569    -5.496885    47.099617    40.548618    31.468395    -6.511648    -10.069242    26.536531    -19.280533    -8.292281    -1.547629    4.612123    -8.677735    -4.029865    -1.164185    10.885169    -1.410242    -5.899403    -8.822070    -8.921557    -0.083753    -0.880745    0.092985    -6.239821    -2.796787    0.855268    3.250354    3.260202    3.673733    -0.187006    -5.884664    -11.818100    -2.234169    0.239884    2.415584    
-3.219174    81.683754    98.709190    -1.464805    -8.388217    -176.201416    -2.954278    -13.230554    -0.033842    1.119672    7.826323    0.232289    2.621799    6.125809    -2.082728    4.973890    -9.951530    -1.282630    2.021849    16.642826    -2.385268    -44.745605    42.869213    -42.695370    0.287619    -3.082843    -14.059925    11.849026    -2.995138    0.504627    3.848533    18.565041    -5.413360    46.998802    40.203632    31.649908    -6.535557    -10.112530    26.754845    -19.295874    -8.330020    -1.469873    4.619503    -8.678084    -4.023981    -1.161300    10.894950    -1.410423    -5.910859    -8.817172    -8.932856    -0.082701    -0.877468    0.091817    -6.225803    -2.815930    0.825278    3.241943    3.308311    3.676916    -0.183593    -5.891776    -11.794615    -2.223773    0.238629    2.404349    
-3.211132    81.686768    98.719803    -1.457782    -8.372667    -176.194427    -2.950017    -13.225363    -0.036074    1.121988    7.854185    0.228963    2.605815    6.128692    -2.089613    4.990985    -10.022016    -1.281387    2.124475    16.489799    -2.476981    -44.392273    42.611374    -43.096733    0.123010    -3.071326    -14.068950    11.425046    -3.007820    0.484127    3.770534    18.473146    -5.312770    46.849113    39.859615    31.873987    -6.569764    -10.129865    26.980791    -19.321232    -8.338078    -1.395021    4.631520    -8.680357    -4.015707    -1.159139    10.908003    -1.414709    -5.923746    -8.811994    -8.944257    -0.081667    -0.873979    0.090669    -6.206967    -2.834716    0.796079    3.231876    3.356264    3.676063    -0.179055    -5.896712    -11.768725    -2.212279    0.238389    2.391923    
-3.202188    81.689583    98.732559    -1.447593    -8.354362    -176.185806    -2.944506    -13.217860    -0.039585    1.125244    7.881628    0.224178    2.592259    6.136987    -2.096156    5.005140    -10.090867    -1.280618    2.240865    16.323774    -2.583824    -44.013012    42.344933    -43.534363    -0.035122    -3.055887    -14.073241    11.026288    -3.016853    0.449973    3.680509    18.365788    -5.195183    46.651287    39.521133    32.139275    -6.615921    -10.122481    27.210541    -19.348269    -8.317536    -1.323190    4.648050    -8.683818    -4.003602    -1.157493    10.924653    -1.425079    -5.937803    -8.806887    -8.955030    -0.080495    -0.870057    0.089366    -6.183539    -2.851950    0.769018    3.220244    3.403113    3.670149    -0.173759    -5.899197    -11.740472    -2.200214    0.239717    2.378874    
-3.192425    81.692352    98.747841    -1.435077    -8.332571    -176.175873    -2.937881    -13.207544    -0.044283    1.128425    7.909040    0.217932    2.581594    6.150708    -2.102529    5.016114    -10.157477    -1.280568    2.373251    16.139767    -2.709174    -43.598598    42.063904    -44.018040    -0.186007    -3.038639    -14.072467    10.642687    -3.024065    0.403436    3.576141    18.239368    -5.057026    46.400177    39.179260    32.453243    -6.676043    -10.091836    27.447794    -19.370605    -8.269467    -1.252417    4.667900    -8.687931    -3.988472    -1.155955    10.944767    -1.440016    -5.953564    -8.801342    -8.965837    -0.079065    -0.864993    0.087778    -6.156532    -2.867616    0.744257    3.207474    3.449563    3.657949    -0.167936    -5.898957    -11.708588    -2.187886    0.241654    2.365540    
